<svg width="41" height="38" viewBox="0 0 41 38" fill="none" xmlns="http://www.w3.org/2000/svg">
<path d="M20.4209 31.8025C21.7326 31.8025 22.7959 30.7392 22.7959 29.4275C22.7959 28.1158 21.7326 27.0525 20.4209 27.0525C19.1092 27.0525 18.0459 28.1158 18.0459 29.4275C18.0459 30.7392 19.1092 31.8025 20.4209 31.8025Z" fill="#E6167E"/>
<path d="M20.5 24.7566C21.0459 24.7566 21.5694 24.5398 21.9554 24.1537C22.3415 23.7677 22.5583 23.2442 22.5583 22.6983V13.1666C22.5583 12.6207 22.3415 12.0972 21.9554 11.7111C21.5694 11.3251 21.0459 11.1083 20.5 11.1083C19.9541 11.1083 19.4305 11.3251 19.0445 11.7111C18.6585 12.0972 18.4416 12.6207 18.4416 13.1666V22.6666C18.4375 22.9396 18.4876 23.2106 18.5891 23.464C18.6907 23.7174 18.8417 23.9481 19.0332 24.1426C19.2248 24.3371 19.4531 24.4915 19.7049 24.597C19.9567 24.7024 20.227 24.7566 20.5 24.7566Z" fill="#E6167E"/>
<path d="M39.8038 30.8843L24.3822 2.47927C23.9739 1.7291 23.3709 1.1029 22.6367 0.666589C21.9024 0.230278 21.0642 0 20.2101 0C19.356 0 18.5177 0.230278 17.7835 0.666589C17.0493 1.1029 16.4463 1.7291 16.038 2.47927L0.600513 30.8843C0.196454 31.6095 -0.0104563 32.428 0.000406723 33.2582C0.0112697 34.0883 0.239526 34.9011 0.662425 35.6156C1.08532 36.33 1.68809 36.9212 2.41065 37.33C3.1332 37.7389 3.95031 37.9513 4.78051 37.9459H35.6238C36.4472 37.9467 37.2567 37.7334 37.9728 37.327C38.6889 36.9205 39.2871 36.3349 39.7086 35.6276C40.1301 34.9203 40.3605 34.1155 40.3772 33.2923C40.3939 32.469 40.1963 31.6556 39.8038 30.9318V30.8843ZM36.9855 33.9559C36.8454 34.1923 36.6461 34.3881 36.4074 34.5241C36.1687 34.6602 35.8986 34.7317 35.6238 34.7318H4.78051C4.50529 34.7325 4.23463 34.6615 3.99522 34.5258C3.7558 34.39 3.55591 34.1942 3.41525 33.9576C3.27459 33.7211 3.19803 33.4519 3.1931 33.1768C3.18818 32.9016 3.25507 32.6299 3.38718 32.3884L18.8088 3.98344C18.9445 3.73208 19.1456 3.5221 19.3909 3.37576C19.6362 3.22941 19.9165 3.15214 20.2022 3.15214C20.4878 3.15214 20.7681 3.22941 21.0134 3.37576C21.2587 3.5221 21.4598 3.73208 21.5955 3.98344L37.0172 32.3884C37.1484 32.63 37.2145 32.9015 37.209 33.1764C37.2034 33.4512 37.1264 33.7199 36.9855 33.9559Z" fill="#E6167E"/>
</svg>
