<svg width="92" height="39" viewBox="0 0 92 39" fill="none" xmlns="http://www.w3.org/2000/svg">
<path d="M77.4554 23.3993H80.5905L79.0002 18.2197L77.4554 23.3993Z" fill="#347EA0"/>
<path d="M22.2977 17.7654H21.2073V25.6257H22.2977C23.2064 25.6257 23.888 25.5348 24.2969 25.3076C24.7058 25.0805 24.9784 24.7624 25.2056 24.2172C25.4328 23.7174 25.5236 22.8541 25.5236 21.7182C25.5236 20.1734 25.2964 19.1284 24.7967 18.5832C24.2969 18.038 23.479 17.7654 22.2977 17.7654Z" fill="#347EA0"/>
<path d="M86.7248 5.27051H9.84837C11.2569 6.40639 12.1656 8.13293 12.211 10.3593H9.39402C9.30315 7.76944 7.39487 5.72486 5.07767 5.72486C2.94222 5.72486 1.12481 7.49683 0.806763 9.85947V11.8586H13.3923C14.1647 11.8586 14.7554 12.4493 14.7554 13.2217V29.9873C14.7554 30.7142 14.1647 31.3503 13.3923 31.3503H0.852198V34.3945C0.852198 36.8934 2.89678 38.938 5.39572 38.938H86.7248C89.2237 38.938 91.2683 36.8934 91.2683 34.3945V9.7686C91.2683 7.31509 89.2237 5.27051 86.7248 5.27051ZM29.4764 25.2166C29.1129 26.0798 28.6586 26.7614 28.0225 27.352C27.3864 27.9427 26.7503 28.3062 26.0233 28.4879C25.0692 28.7605 24.1605 28.8968 23.3881 28.8968H16.7545V14.4939H23.3881C24.7057 14.4939 25.7507 14.6756 26.5685 15.0391C27.3864 15.4026 28.0225 15.9024 28.5677 16.5839C29.1129 17.2654 29.4764 17.9924 29.7036 18.9011C29.9307 19.7643 30.067 20.7185 30.067 21.6726C30.0216 23.172 29.8399 24.3987 29.4764 25.2166ZM47.4687 28.8968H43.8339V17.9015L41.0169 28.8968H37.7002L34.9286 17.9015V28.8968H31.2938V14.4939H37.1549L39.4267 23.2629L41.653 14.4939H47.5142V28.8968H47.4687ZM65.87 31.4412C64.1435 32.4408 62.2352 32.9406 60.236 32.9406C58.2369 32.9406 56.3286 32.4408 54.6021 31.4412C52.8755 30.4416 51.467 29.0786 50.4675 27.3066C49.4679 25.5801 48.9681 23.6718 48.9681 21.6726C48.9681 19.6735 49.4679 17.7652 50.4675 16.0387C51.467 14.2667 52.8755 12.9036 54.6021 11.9041C56.3286 10.9045 58.2369 10.4047 60.236 10.4047C62.2352 10.4047 64.1435 10.9045 65.87 11.9041C67.5965 12.9036 69.005 14.2667 70.0046 16.0387C71.0042 17.8106 71.504 19.6735 71.504 21.6726C71.504 23.6718 71.0042 25.5801 70.0046 27.3066C69.005 29.0331 67.642 30.4416 65.87 31.4412ZM82.2721 28.8968L81.5452 26.5342H76.5019L75.8203 28.8968H71.2768L76.6836 14.4939H81.5452L86.952 28.8968H82.2721Z" fill="#347EA0"/>
<path d="M60.2354 12.54C57.7364 12.54 55.5556 13.4487 53.7836 15.2207C52.0116 16.9927 51.1029 19.1281 51.1029 21.6725C51.1029 24.1715 52.0116 26.3523 53.7836 28.1243C55.5556 29.8963 57.691 30.805 60.2354 30.805C62.7798 30.805 64.9152 29.8963 66.6872 28.1243C68.4592 26.3523 69.3679 24.2169 69.3679 21.6725C69.3679 19.1736 68.4592 16.9927 66.6872 15.2207C64.9152 13.4487 62.7343 12.54 60.2354 12.54ZM64.37 26.5341C63.325 27.5337 61.9619 28.0335 60.3263 28.0335C58.5088 28.0335 57.0549 27.4428 55.8736 26.2615C54.7377 25.0802 54.1471 23.5354 54.1471 21.6271C54.1471 19.8097 54.7377 18.3103 55.919 17.129C57.1004 15.9477 58.5543 15.357 60.3263 15.357C61.7347 15.357 62.9615 15.7205 63.9156 16.4929C64.8698 17.2653 65.5059 18.2194 65.7785 19.4462L62.8706 19.9005C62.6889 19.0827 62.3708 18.4921 61.9165 18.1286C61.4621 17.7651 60.8715 17.5379 60.19 17.5379C59.4176 17.5379 58.7815 17.856 58.2362 18.5375C57.691 19.1736 57.4638 20.2186 57.4638 21.6271C57.4638 23.0356 57.6456 24.0352 58.0091 24.6258C58.5088 25.4891 59.2812 25.9434 60.2354 25.9434C60.826 25.9434 61.3713 25.7163 61.8711 25.2619C62.3708 24.8075 62.6889 24.0806 62.9161 23.081L65.9602 23.808C65.5513 24.9439 65.0061 25.898 64.37 26.5341Z" fill="#347EA0"/>
<path d="M4.71472 0.0456543H6.71387C7.16822 0.0456543 7.48627 0.136525 7.71345 0.363701C7.94062 0.590877 8.03149 0.863488 8.03149 1.27241C8.03149 1.68132 7.89519 1.95393 7.66801 2.18111C7.44084 2.40829 7.07735 2.49916 6.57757 2.49916H5.89604V3.95308H4.71472V0.0456543ZM5.94147 1.72676H6.25952C6.4867 1.72676 6.66844 1.68132 6.75931 1.59045C6.85018 1.49958 6.89561 1.40871 6.89561 1.27241C6.89561 1.1361 6.85018 1.04523 6.75931 0.954359C6.66844 0.863488 6.53213 0.818053 6.30495 0.818053H5.94147V1.72676Z" fill="#347EA0"/>
<path d="M8.75793 3.95308V0.0456543H10.7571C11.1206 0.0456543 11.3932 0.0910895 11.6204 0.136525C11.8475 0.18196 11.9838 0.318266 12.0747 0.500007C12.1656 0.681747 12.2564 0.863488 12.2564 1.1361C12.2564 1.36328 12.211 1.54502 12.1201 1.68132C12.0293 1.81763 11.893 1.95393 11.7567 2.0448C11.6658 2.09024 11.5295 2.13567 11.3477 2.18111C11.484 2.22655 11.5749 2.27198 11.6658 2.31742C11.7112 2.36285 11.7567 2.40829 11.8475 2.54459C11.9384 2.63546 11.9838 2.72633 12.0293 2.77177L12.6199 3.90765H11.2569L10.6208 2.72633C10.5299 2.59003 10.4845 2.45372 10.3936 2.40829C10.3027 2.36285 10.2119 2.31742 10.0756 2.31742H9.93925V3.90765H8.75793V3.95308ZM9.93925 1.63589H10.439C10.4845 1.63589 10.6208 1.63589 10.7571 1.59045C10.848 1.59045 10.8934 1.54502 10.9388 1.45415C10.9843 1.36328 11.0297 1.31784 11.0297 1.22697C11.0297 1.09066 10.9843 0.999794 10.8934 0.954359C10.8025 0.908924 10.6662 0.863488 10.439 0.863488H9.93925V1.63589Z" fill="#347EA0"/>
<path d="M12.8027 1.99915C12.8027 1.36306 12.9845 0.863269 13.348 0.499788C13.7114 0.136306 14.1658 0 14.8019 0C15.438 0 15.9378 0.181741 16.3012 0.545223C16.6647 0.908705 16.8465 1.36306 16.8465 1.99915C16.8465 2.4535 16.7556 2.81698 16.6193 3.13503C16.483 3.45308 16.2104 3.63482 15.9378 3.77112C15.6652 3.90743 15.3017 3.9983 14.8473 3.9983C14.393 3.9983 14.0295 3.90743 13.7569 3.77112C13.4843 3.63482 13.2571 3.45308 13.0753 3.18047C12.8936 2.90785 12.8027 2.49894 12.8027 1.99915ZM13.9841 2.04459C13.9841 2.4535 14.0749 2.72611 14.2112 2.90785C14.3475 3.0896 14.5747 3.18047 14.8019 3.18047C15.0745 3.18047 15.2562 3.0896 15.3925 2.90785C15.5288 2.72611 15.6197 2.4535 15.6197 1.99915C15.6197 1.63567 15.5288 1.36306 15.3925 1.18132C15.2562 0.999575 15.0745 0.908705 14.8019 0.908705C14.5747 0.908705 14.3475 0.999575 14.2112 1.18132C14.0749 1.36306 13.9841 1.63567 13.9841 2.04459Z" fill="#347EA0"/>
<path d="M17.1188 0.0456543H20.799V0.999794H19.5723V3.95308H18.3455V1.04523H17.1188V0.0456543Z" fill="#347EA0"/>
<path d="M21.4349 0.0456543H24.6608V0.908924H22.6163V1.54502H24.4791V2.36285H22.6163V3.13525H24.7063V3.99852H21.4349V0.0456543Z" fill="#347EA0"/>
<path d="M28.0227 2.36263L29.0678 2.68068C28.9769 2.99872 28.886 3.2259 28.7497 3.40764C28.6134 3.58938 28.3862 3.77112 28.159 3.86199C27.9319 3.95286 27.6593 4.04374 27.2958 4.04374C26.8869 4.04374 26.5234 3.9983 26.2508 3.86199C25.9782 3.72569 25.751 3.54395 25.5692 3.2259C25.3875 2.90785 25.2966 2.49894 25.2966 2.04459C25.2966 1.40849 25.4784 0.908705 25.7964 0.545223C26.1599 0.181741 26.6143 0 27.2503 0C27.7501 0 28.1136 0.0908704 28.4317 0.318047C28.7497 0.545223 28.9314 0.817834 29.0678 1.22675L28.0227 1.45393C27.9773 1.31762 27.9319 1.22675 27.8864 1.18132C27.841 1.09045 27.7501 0.999575 27.6593 0.95414C27.5684 0.908704 27.4321 0.908705 27.2958 0.908705C27.0232 0.908705 26.796 0.999575 26.6597 1.22675C26.5688 1.40849 26.4779 1.63567 26.4779 1.99915C26.4779 2.4535 26.5234 2.72611 26.6597 2.90785C26.796 3.0896 26.9777 3.13503 27.2049 3.13503C27.4321 3.13503 27.6138 3.0896 27.7501 2.95329C27.8864 2.81698 27.9773 2.63524 28.0227 2.36263Z" fill="#347EA0"/>
<path d="M29.4772 0.0456543H33.112V0.999794H31.8852V3.95308H30.6585V1.04523H29.4772V0.0456543Z" fill="#347EA0"/>
<path d="M33.7474 0.0456543H36.9733V0.908924H34.9288V1.54502H36.7916V2.36285H34.9288V3.13525H37.0188V3.99852H33.7474V0.0456543Z" fill="#347EA0"/>
<path d="M37.7922 0.0456543H39.5642C39.9277 0.0456543 40.2003 0.0910895 40.4275 0.18196C40.6547 0.27283 40.8364 0.454571 40.9727 0.636312C41.109 0.818053 41.1999 1.04523 41.2907 1.27241C41.3816 1.49958 41.3816 1.77219 41.3816 2.0448C41.3816 2.45372 41.3362 2.77177 41.2453 2.99894C41.1544 3.22612 41.0181 3.40786 40.8364 3.54417C40.6547 3.68047 40.4729 3.81678 40.2912 3.86221C40.0186 3.95308 39.7914 3.95308 39.5642 3.95308H37.7922V0.0456543ZM38.9736 0.954359V3.08981H39.2916C39.5642 3.08981 39.7005 3.04438 39.8368 2.99894C39.9731 2.95351 40.0186 2.86264 40.1094 2.72633C40.2003 2.59003 40.2003 2.36285 40.2003 2.0448C40.2003 1.63589 40.1549 1.36328 40.0186 1.18154C39.8823 0.999794 39.6551 0.954359 39.337 0.954359H38.9736Z" fill="#347EA0"/>
<path d="M47.061 2.09002L47.9243 2.27176C47.8789 2.40807 47.8334 2.54437 47.788 2.63524C47.7426 2.72611 47.6971 2.86242 47.6063 2.95329L48.0152 3.2259C48.0606 3.27134 48.106 3.31677 48.1969 3.36221L47.6063 4.04374C47.5154 3.9983 47.3791 3.90743 47.2882 3.86199C47.1973 3.81656 47.061 3.72569 46.9702 3.68025C46.7884 3.81656 46.6067 3.90743 46.4249 3.95286C46.1523 4.04374 45.8797 4.08917 45.5162 4.08917C45.0164 4.08917 44.6075 3.9983 44.3349 3.77112C44.0623 3.54395 43.9714 3.27134 43.9714 2.99872C43.9714 2.77155 44.0623 2.54437 44.1986 2.36263C44.3349 2.18089 44.6075 1.99915 44.9256 1.86284C44.7893 1.6811 44.6984 1.5448 44.653 1.40849C44.6075 1.27219 44.5621 1.13588 44.5621 0.999575C44.5621 0.726964 44.653 0.499787 44.8801 0.318047C45.1073 0.136306 45.3799 0 45.8343 0C46.2886 0 46.6067 0.0908705 46.7884 0.272611C46.9702 0.454352 47.1065 0.636093 47.1065 0.863269C47.1065 0.999575 47.061 1.13588 47.0156 1.22675C46.9702 1.31762 46.8793 1.45393 46.7884 1.5448C46.6975 1.63567 46.5612 1.72654 46.3341 1.90828C46.5158 2.09002 46.743 2.27176 46.9247 2.4535C46.9702 2.3172 47.0156 2.18089 47.061 2.09002ZM45.4254 2.3172C45.2891 2.40807 45.1982 2.49894 45.1073 2.58981C45.0164 2.68068 45.0164 2.72611 45.0164 2.81698C45.0164 2.95329 45.0619 3.04416 45.1982 3.18047C45.3345 3.31677 45.4708 3.31677 45.6525 3.31677C45.8343 3.31677 46.0615 3.2259 46.2886 3.0896C46.0615 2.95329 45.7888 2.68068 45.4254 2.3172ZM45.7888 1.40849C45.9252 1.31762 46.016 1.22675 46.1069 1.18132C46.1978 1.13588 46.2432 0.999575 46.2432 0.908705C46.2432 0.817834 46.1978 0.772399 46.1523 0.681528C46.1069 0.590658 46.016 0.590658 45.8797 0.590658C45.7888 0.590658 45.698 0.636093 45.6071 0.681528C45.5162 0.726964 45.5162 0.817834 45.5162 0.908705C45.5162 0.999575 45.6071 1.18132 45.7888 1.40849Z" fill="#347EA0"/>
<path d="M50.7406 0.0456543H52.3308L52.9215 2.40829L53.5121 0.0456543H55.1024V3.95308H54.1028V0.999794L53.3304 3.99852H52.4217L51.7402 0.999794V3.99852H50.7406V0.0456543Z" fill="#347EA0"/>
<path d="M55.8297 1.99915C55.8297 1.36306 56.0115 0.863269 56.3749 0.499788C56.7384 0.136306 57.1928 0 57.8289 0C58.465 0 58.9647 0.181741 59.3282 0.545223C59.6917 0.908705 59.8734 1.36306 59.8734 1.99915C59.8734 2.4535 59.7826 2.81698 59.6463 3.13503C59.51 3.45308 59.2828 3.63482 58.9647 3.81656C58.6467 3.9983 58.3286 4.04374 57.8743 4.04374C57.4199 4.04374 57.0565 3.95286 56.7839 3.81656C56.5112 3.68025 56.2841 3.45308 56.1023 3.18047C55.9206 2.90785 55.8297 2.49894 55.8297 1.99915ZM57.0565 2.04459C57.0565 2.4535 57.1473 2.72611 57.2836 2.90785C57.4199 3.0896 57.6471 3.18047 57.8743 3.18047C58.1469 3.18047 58.3287 3.0896 58.465 2.90785C58.6013 2.72611 58.6921 2.4535 58.6921 1.99915C58.6921 1.63567 58.6013 1.36306 58.465 1.18132C58.3287 0.999575 58.1015 0.908705 57.8289 0.908705C57.6017 0.908705 57.3745 0.999575 57.2382 1.18132C57.1019 1.36306 57.0565 1.63567 57.0565 2.04459Z" fill="#347EA0"/>
<path d="M60.6001 0.0456543H61.736L63.1899 2.22655V0.0456543H64.3258V3.95308H63.1899L61.736 1.81763V3.95308H60.6001V0.0456543Z" fill="#347EA0"/>
<path d="M65.2806 0.0456543H66.5074V3.95308H65.2806V0.0456543Z" fill="#347EA0"/>
<path d="M67.1437 0.0456543H70.8239V0.999794H69.5972V3.95308H68.3704V1.04523H67.1437V0.0456543Z" fill="#347EA0"/>
<path d="M71.0953 1.99915C71.0953 1.36306 71.2771 0.863269 71.6406 0.499788C72.004 0.136306 72.4584 0 73.0945 0C73.7306 0 74.2304 0.181741 74.5938 0.545223C74.9573 0.908705 75.1391 1.36306 75.1391 1.99915C75.1391 2.4535 75.0482 2.81698 74.9119 3.13503C74.7756 3.45308 74.5484 3.63482 74.2304 3.81656C73.9123 3.9983 73.5943 4.04374 73.1399 4.04374C72.6856 4.04374 72.3221 3.95286 72.0495 3.81656C71.7769 3.68025 71.5497 3.45308 71.3679 3.13503C71.1862 2.81698 71.0953 2.49894 71.0953 1.99915ZM72.2766 2.04459C72.2766 2.4535 72.3675 2.72611 72.5038 2.90785C72.6401 3.0896 72.8673 3.18047 73.0945 3.18047C73.3671 3.18047 73.5488 3.0896 73.6851 2.90785C73.8214 2.72611 73.9123 2.4535 73.9123 1.99915C73.9123 1.63567 73.8214 1.36306 73.6851 1.18132C73.5488 0.999575 73.3217 0.908705 73.0945 0.908705C72.8673 0.908705 72.6401 0.999575 72.5038 1.18132C72.3675 1.36306 72.2766 1.63567 72.2766 2.04459Z" fill="#347EA0"/>
<path d="M75.8658 3.95308V0.0456543H77.865C78.2285 0.0456543 78.5011 0.0910895 78.7283 0.136525C78.9554 0.18196 79.0917 0.318266 79.1826 0.500007C79.2735 0.681747 79.3644 0.863488 79.3644 1.1361C79.3644 1.36328 79.3189 1.54502 79.228 1.68132C79.1372 1.81763 79.0009 1.95393 78.8646 2.0448C78.7737 2.09024 78.6374 2.13567 78.4557 2.18111C78.592 2.22655 78.6828 2.27198 78.7737 2.31742C78.8191 2.36285 78.8646 2.40829 78.9554 2.54459C79.0463 2.63546 79.0917 2.72633 79.1372 2.77177L79.7278 3.90765H78.3648L77.7287 2.72633C77.6378 2.59003 77.5924 2.45372 77.5015 2.40829C77.4106 2.36285 77.3198 2.31742 77.1835 2.31742H77.0926V3.90765H75.8658V3.95308ZM77.0472 1.63589H77.5469C77.5924 1.63589 77.7287 1.63589 77.865 1.59045C77.9559 1.59045 78.0013 1.54502 78.0467 1.45415C78.0922 1.36328 78.1376 1.31784 78.1376 1.22697C78.1376 1.09066 78.0922 0.999794 78.0013 0.954359C77.9104 0.908924 77.7741 0.863488 77.5469 0.863488H77.0017V1.63589H77.0472Z" fill="#347EA0"/>
<path d="M80.1377 0.0456543H83.3636V0.908924H81.319V1.54502H83.1819V2.36285H81.319V3.13525H83.409V3.99852H80.1377V0.0456543Z" fill="#347EA0"/>
<path d="M84.1809 0.0456543H85.9529C86.3164 0.0456543 86.589 0.0910895 86.8162 0.18196C87.0433 0.27283 87.2251 0.409136 87.3614 0.590877C87.4977 0.772618 87.5886 0.999794 87.6794 1.22697C87.7703 1.45415 87.7703 1.72676 87.7703 1.99937C87.7703 2.40829 87.7249 2.72633 87.634 2.95351C87.5431 3.18069 87.4068 3.36243 87.2251 3.54417C87.0433 3.72591 86.8616 3.81678 86.6798 3.86221C86.4072 3.95308 86.1801 3.95308 85.9529 3.95308H84.1809V0.0456543ZM85.3622 0.954359V3.08981H85.6803C85.9529 3.08981 86.0892 3.04438 86.2255 2.99894C86.3618 2.95351 86.4072 2.86264 86.4981 2.72633C86.589 2.59003 86.589 2.36285 86.589 2.0448C86.589 1.63589 86.5435 1.36328 86.4072 1.18154C86.2709 0.999794 86.0438 0.954359 85.7257 0.954359H85.3622Z" fill="#347EA0"/>
<path d="M7.98551 26.7159L5.94092 21.2182C6.75876 20.8093 7.30398 19.946 7.30398 18.9465C7.30398 17.538 6.1681 16.4021 4.75961 16.4021C3.35112 16.4021 2.21523 17.538 2.21523 18.9465C2.21523 20.0369 2.89676 20.9456 3.8509 21.3091L2.1698 26.7159H7.98551Z" fill="#347EA0"/>
</svg>
