<svg width="1920" height="1092" viewBox="0 0 1920 1092" fill="none" xmlns="http://www.w3.org/2000/svg">
<path d="M-20.7057 161.773C177.991 -37.1244 390.867 -27.7386 636.777 43.0351C846.272 103.708 1062.1 218.943 1275.7 189.794C1489.29 160.645 1658.27 49.761 1865.03 114.476C2142.89 199.741 2191.02 295.54 2121.5 508.5C2026.72 805.083 1750.78 962.082 1493 878C1279.62 807.641 1061.46 810.628 778.273 918.387C568.205 997.43 340.939 1020.72 90.9997 964.725C-191.541 899.599 -386.506 530.506 -20.7057 161.773Z" fill="url(#paint0_linear_303_94)"/>
<path opacity="0.4" d="M1210 203C1013.49 192.378 852 285.845 688 254.845L432 503.845L1225 492.845L1795 472.845L1871 285.845C1823.67 281.178 1721 274.645 1689 285.845C1649 299.845 1650.52 244.343 1528 254.845C1388 266.845 1395 213 1210 203Z" fill="#7AE5D9"/>
<path opacity="0.4" d="M443.129 918.509C238.745 946.291 3.5573 891.327 -91 843.235V759L788 775.174L883 776.922C820.461 808.884 654.088 889.833 443.129 918.509Z" fill="#7AE5D9"/>
<path opacity="0.4" d="M1369 861C1234 890 1105 785 925 800C990.667 763.333 1189.2 702.8 1198 702C1206.8 701.2 1442.33 691 1559 686L1925 675V832C1873.8 853.6 1844 854 1707 837C1570 820 1504 832 1369 861Z" fill="#7AE5D9"/>
<path d="M2 250C2 250 356 131 654 155C1035.34 185.712 1141 286 1327 286C1513 286 1683 155 1929 182C2002.9 190.111 2045.13 193.8 2068.04 194.992L2070 187C2070 187 2121.39 197.767 2068.04 194.992L1924 782C1924 782 1738 862 1600 854C1453.03 845.48 1373 778 1250 790C1127 802 1046.95 867.78 856 833C576 782 520 888 235 868C-50 848 -113 764 -113 764L2 250Z" fill="#0CDADA"/>
<defs>
<linearGradient id="paint0_linear_303_94" x1="828.043" y1="35.6874" x2="1194.18" y2="1324.86" gradientUnits="userSpaceOnUse">
<stop stop-color="#E9D2DD" stop-opacity="0.2"/>
</linearGradient>
</defs>
</svg>
