<svg width="136" height="22" viewBox="0 0 136 22" fill="none" xmlns="http://www.w3.org/2000/svg">
<path d="M3.04129 10.9859C3.04129 13.104 3.96453 14.2988 5.64809 14.2988C7.22305 14.2988 8.41784 12.8867 8.41784 10.8773C8.41784 8.97652 7.33166 7.56449 5.86533 7.56449C4.12745 7.6188 3.04129 8.92222 3.04129 10.9859ZM8.36353 15.0048C7.87475 15.5479 6.89719 16.7427 4.77915 16.7427C2.00941 16.7427 0 14.3531 0 10.9316C0 7.51019 2.06373 5.12061 4.9964 5.12061C6.13688 5.12061 7.06012 5.55508 8.41784 6.64126V5.39215H12.4367V7.67312H11.3505V16.797C11.3505 19.621 9.23246 21.3046 5.64809 21.3046C3.91022 21.3046 2.5525 20.9244 1.57495 20.1098C0.814626 19.5124 0.488771 18.915 0.162919 17.503H3.04129C3.42145 18.5892 4.23607 19.0779 5.59378 19.0779C7.27735 19.0779 8.41784 18.209 8.41784 16.8513C8.36353 16.8513 8.36353 15.0048 8.36353 15.0048Z" fill="#347EA0"/>
<path d="M20.6374 11.6379C17.8676 11.9094 16.0211 12.1266 16.0211 13.8102C16.0211 14.7878 16.7815 15.4395 17.9763 15.4395C19.4969 15.4395 20.6374 14.299 20.6374 12.8326C20.6374 12.7783 20.6374 11.6379 20.6374 11.6379ZM23.4071 14.9507H24.439V17.2317H20.746V15.8196C19.5512 17.0687 18.628 17.4489 17.1616 17.4489C14.772 17.4489 12.9799 15.8739 12.9799 13.7559C12.9799 10.2801 16.8901 9.89998 20.6917 9.51982C20.6917 7.67332 20.2029 7.23885 18.5193 7.23885C17.3246 7.23885 16.4556 7.94487 16.4013 9.03104L13.5229 8.92242C13.6859 6.53284 15.5867 5.01221 18.4107 5.01221C21.6692 5.01221 23.4614 6.47853 23.4614 9.19396L23.4071 14.9507Z" fill="#347EA0"/>
<path d="M29.1646 6.80418C30.4137 5.44646 31.2283 5.12061 32.586 5.12061C33.9437 5.12061 34.6498 5.60938 35.4101 6.9671C36.0075 6.3697 37.0937 5.12061 38.9945 5.12061C40.8953 5.12061 42.1987 6.47833 42.1987 8.48775V15.0048H43.2848V17.2857H39.266V9.24806C39.266 8.2162 38.7772 7.56449 38.0169 7.56449C36.8221 7.56449 35.6816 9.13944 35.6816 10.7687V14.8962H36.8221V17.1771H32.749V9.35669C32.749 8.1619 32.3688 7.56449 31.4999 7.56449C30.1965 7.56449 29.056 9.13944 29.1103 11.0402V14.8962H30.2508V17.1771H25.2001V14.8962H26.1776V7.67312H25.1458V5.39215H29.056V6.80418H29.1646Z" fill="#347EA0"/>
<path d="M47.9551 11.3661C47.9551 13.81 48.9327 15.1134 50.8335 15.1134C52.4627 15.1134 53.4946 13.647 53.4946 11.3118C53.4946 8.9765 52.4627 7.51017 50.8335 7.51017C48.987 7.51017 47.9551 8.92219 47.9551 11.3661ZM43.9906 0.884521H48.0094V6.69554C49.2042 5.50075 50.1275 5.01198 51.3766 5.01198C54.3635 5.01198 56.4816 7.56448 56.4816 11.1489C56.4816 14.9505 54.4721 17.503 51.5395 17.503C50.0731 17.503 49.2585 17.1228 47.9008 15.928V17.2314H43.882V14.9505H45.1311V3.16547H43.9906V0.884521Z" fill="#347EA0"/>
<path d="M57.1868 0.884521H61.2057V14.9505H62.3461V17.2314H57.1868V14.9505H58.3273V3.16547H57.1868V0.884521Z" fill="#347EA0"/>
<path d="M71.0363 9.84582C70.8191 8.32518 69.9502 7.51054 68.5381 7.51054C67.2347 7.51054 66.2572 8.37949 65.877 9.84582H71.0363ZM74.0776 13.3759C73.5345 15.9284 71.4165 17.5576 68.4838 17.5576C65.171 17.5576 62.7271 14.9508 62.7271 11.3121C62.7271 7.72777 65.171 5.06665 68.5381 5.06665C70.4389 5.06665 72.0682 5.93559 73.1001 7.51054C74.1862 9.19411 74.2405 10.7691 74.2949 11.9639H65.7141C65.9856 15.0594 67.9951 15.2224 68.5924 15.2224C69.7872 15.2224 70.5476 14.6793 71.0363 13.4302L74.0776 13.3759Z" fill="#347EA0"/>
<path d="M82.875 11.2034L81.8431 11.3663C79.6708 11.6922 78.7475 12.018 78.1501 12.6154C77.8243 12.9413 77.6614 13.3757 77.6614 13.7559C77.6614 14.8421 78.5846 15.7653 79.7251 15.7653C81.3544 15.7653 82.875 14.299 82.875 12.8326V11.2034ZM82.875 15.6567C81.7888 16.6342 80.8113 17.5032 78.8562 17.5032C76.6295 17.5032 75.0002 15.9825 75.0002 13.9188C75.0002 12.9956 75.3261 12.2352 75.8692 11.5835C76.7924 10.6603 78.0958 10.2258 81.2457 9.89998L82.8207 9.73705V8.97673C82.8207 7.61901 81.9517 6.8587 80.3225 6.8587C78.8562 6.8587 78.1501 7.40179 77.8786 8.81381H75.4347C75.5976 7.56471 75.9235 6.913 76.5752 6.2613C77.4984 5.44667 78.8018 5.01221 80.4854 5.01221C83.4181 5.01221 85.156 6.47853 85.156 8.97673V15.3308H86.568V17.2317H82.8207L82.875 15.6567Z" fill="#347EA0"/>
<path d="M86.4042 5.33789H90.9661V7.23869H89.6627L91.6178 15.2764L93.8988 5.33789H96.1254L98.4064 15.2764L100.361 7.23869H99.0581V5.33789H103.566V7.23869H102.371L99.6555 17.2315H97.1573L94.9849 8.32487L92.8669 17.2315H90.3144L87.5447 7.23869H86.4042V5.33789Z" fill="#347EA0"/>
<path d="M111.875 11.2034L110.844 11.3663C108.671 11.6922 107.748 12.018 107.151 12.6154C106.825 12.9413 106.662 13.3757 106.662 13.7559C106.662 14.8421 107.585 15.7653 108.726 15.7653C110.355 15.7653 111.875 14.299 111.875 12.8326V11.2034ZM111.875 15.6567C110.789 16.6342 109.812 17.5032 107.911 17.5032C105.684 17.5032 104.055 15.9825 104.055 13.9188C104.055 12.9956 104.381 12.2352 104.924 11.5835C105.847 10.6603 107.151 10.2258 110.301 9.89998L111.875 9.73705V8.97673C111.875 7.61901 111.007 6.8587 109.377 6.8587C107.911 6.8587 107.205 7.40179 106.933 8.81381H104.49C104.652 7.56471 104.978 6.913 105.63 6.2613C106.553 5.44667 107.857 5.01221 109.54 5.01221C112.473 5.01221 114.211 6.47853 114.211 8.97673V15.3308H115.623V17.2317H111.875V15.6567Z" fill="#347EA0"/>
<path d="M120.077 7.99933C120.729 6.58731 121.435 5.06665 123.553 5.06665C123.987 5.06665 124.205 5.12097 124.694 5.22959V7.45624C124.096 7.34763 123.879 7.29331 123.553 7.29331C120.892 7.29331 120.132 9.95443 120.132 10.8234V15.331H121.489V17.2318H116.439V15.331H117.796V7.1847H116.439V5.33819H120.077V7.99933Z" fill="#347EA0"/>
<path d="M133.273 10.1174C133.164 8.16225 132.241 7.07608 130.612 7.07608C128.168 7.07608 127.462 9.79151 127.462 10.1174H133.273ZM135.717 13.5931C135.228 14.7879 134.033 17.5033 130.612 17.5033C127.245 17.5033 124.964 14.9508 124.964 11.1492C124.964 7.61916 127.407 5.06665 130.666 5.06665C132.567 5.06665 135.934 6.15283 135.934 11.7466H127.353C127.462 14.4077 129.145 15.4939 130.72 15.4939C131.969 15.4939 132.73 14.8965 133.164 13.5388H135.717V13.5931Z" fill="#347EA0"/>
</svg>
