<svg width="43" height="42" viewBox="0 0 43 42" fill="none" xmlns="http://www.w3.org/2000/svg">
<path d="M21.4231 42C9.85423 42 0.423096 32.5689 0.423096 21C0.423096 9.43114 9.85423 0 21.4231 0C23.6866 0 25.95 0.377253 28.0878 1.06887C29.0309 1.38324 29.5339 2.38921 29.2195 3.33233C28.9051 4.27544 27.8992 4.77845 26.956 4.46408C25.1956 3.83533 23.3093 3.58384 21.4231 3.58384C11.8033 3.52097 3.94406 11.3802 3.94406 21C3.94406 30.6198 11.8033 38.4791 21.4231 38.4791C31.0429 38.4791 38.9022 30.6198 38.9022 21C38.9022 19.491 38.7135 17.982 38.3363 16.5359C38.0848 15.5928 38.6506 14.6497 39.5938 14.3982C40.5369 14.1467 41.48 14.7126 41.7315 15.6557C42.1716 17.4162 42.4231 19.2395 42.4231 21.0629C42.4231 32.5689 32.992 42 21.4231 42Z" fill="#347EA0"/>
<path d="M17.9059 30.1167H14.4478V17.0389C13.1903 18.2335 11.6814 19.1137 9.98376 19.6796V16.5359C10.864 16.2215 11.87 15.6556 12.9388 14.8383C14.0077 14.0209 14.6993 13.0778 15.1394 11.946H17.9688V30.1167H17.9059Z" fill="#347EA0" stroke="#347EA0" stroke-miterlimit="10"/>
<path d="M23.1199 20.3082C22.2397 19.931 21.548 19.428 21.1708 18.7363C20.7936 18.0447 20.5421 17.3531 20.5421 16.5357C20.5421 15.2154 20.9822 14.0837 21.9253 13.2034C22.8684 12.3232 24.1888 11.8831 25.9492 11.8831C27.6469 11.8831 29.0301 12.3232 29.9732 13.2034C30.9163 14.0837 31.4193 15.2154 31.4193 16.5357C31.4193 17.3531 31.2307 18.1076 30.7906 18.7992C30.3504 19.428 29.7217 19.931 28.9672 20.3082C29.9732 20.6855 30.7277 21.3142 31.2307 22.0687C31.7337 22.8232 31.9852 23.7034 31.9852 24.7723C31.9852 26.4699 31.4822 27.7902 30.4133 28.8591C29.3445 29.928 27.9612 30.431 26.1379 30.431C24.5031 30.431 23.1199 29.9908 22.051 29.1106C20.7307 28.1046 20.1019 26.7214 20.1019 24.898C20.1019 23.892 20.3534 23.0118 20.8564 22.1944C21.2965 21.4399 22.051 20.8112 23.1199 20.3082ZM23.4972 24.5837C23.4972 25.5268 23.7486 26.2813 24.2516 26.8471C24.7546 27.413 25.3205 27.6645 26.075 27.6645C26.7666 27.6645 27.3954 27.413 27.8355 26.91C28.2756 26.407 28.5271 25.6525 28.5271 24.7094C28.5271 23.892 28.2756 23.2004 27.8355 22.6974C27.3325 22.1944 26.7666 21.9429 26.0121 21.9429C25.1948 21.9429 24.5031 22.2573 24.1259 22.8232C23.6858 23.2633 23.4972 23.892 23.4972 24.5837ZM23.8115 16.8501C23.8115 17.5417 24.0001 18.1076 24.3774 18.4849C24.7546 18.8621 25.2576 19.0507 25.9492 19.0507C26.578 19.0507 27.1439 18.8621 27.5211 18.4849C27.8983 18.1076 28.087 17.5417 28.087 16.8501C28.087 16.2214 27.8983 15.6555 27.5211 15.2783C27.1439 14.901 26.6409 14.7124 25.9492 14.7124C25.2576 14.7124 24.7546 14.901 24.3774 15.2783C24.0001 15.6555 23.8115 16.2214 23.8115 16.8501Z" fill="#347EA0" stroke="#347EA0" stroke-miterlimit="10"/>
<path d="M40.7247 5.02992H38.5241V2.82932C38.5241 1.82333 37.7068 1.06885 36.7637 1.06885C35.7577 1.06885 35.0032 1.88621 35.0032 2.82932V5.02992H32.8026C31.7966 5.02992 31.0421 5.84728 31.0421 6.79039C31.0421 7.7335 31.8595 8.55088 32.8026 8.55088H35.0032V10.7515C35.0032 11.7575 35.8205 12.512 36.7637 12.512C37.7696 12.512 38.5241 11.6946 38.5241 10.7515V8.55088H40.7247C41.7307 8.55088 42.4852 7.7335 42.4852 6.79039C42.4852 5.84728 41.6679 5.02992 40.7247 5.02992Z" fill="#347EA0"/>
</svg>
