<svg width="226" height="26" viewBox="0 0 226 26" fill="none" xmlns="http://www.w3.org/2000/svg">
<path d="M0 1.07129H4.5V24.9641H0V1.07129Z" fill="#00497A"/>
<path d="M22.1775 0.464355H26.606V24.9286H22.1775V23.0715C21.3203 23.8929 20.4275 24.5001 19.5703 24.8572C18.7132 25.2144 17.7489 25.3929 16.7489 25.3929C14.4632 25.3929 12.4989 24.5001 10.8203 22.7501C9.14174 21.0001 8.32031 18.7858 8.32031 16.1429C8.32031 13.4286 9.14174 11.1786 10.7489 9.42864C12.356 7.67864 14.3203 6.8215 16.606 6.8215C17.6775 6.8215 18.6775 7.03578 19.606 7.42864C20.5346 7.8215 21.3917 8.42864 22.1775 9.21436V0.464355ZM17.4989 10.9286C16.1417 10.9286 14.9989 11.4286 14.0703 12.3929C13.1417 13.3572 12.7132 14.6072 12.7132 16.1072C12.7132 17.6429 13.1775 18.8929 14.106 19.8572C15.0346 20.8572 16.1775 21.3215 17.4989 21.3215C18.8917 21.3215 20.0346 20.8215 20.9632 19.8572C21.8917 18.8929 22.356 17.6072 22.356 16.0358C22.356 14.5001 21.8917 13.2501 20.9632 12.2858C20.0703 11.3929 18.8917 10.9286 17.4989 10.9286Z" fill="#00497A"/>
<path d="M48.7506 17.3927H34.5006C34.7148 18.6427 35.2505 19.6427 36.1434 20.3927C37.0363 21.1427 38.1791 21.4999 39.572 21.4999C41.2148 21.4999 42.6434 20.9284 43.8577 19.7499L47.6077 21.4999C46.6791 22.8213 45.572 23.7856 44.2506 24.4284C42.9648 25.0713 41.3934 25.3927 39.6077 25.3927C36.822 25.3927 34.572 24.5356 32.822 22.7856C31.072 21.0356 30.2148 18.857 30.2148 16.2141C30.2148 13.5356 31.072 11.2856 32.822 9.49986C34.572 7.71415 36.7505 6.82129 39.3577 6.82129C42.1434 6.82129 44.3934 7.71415 46.1434 9.49986C47.8934 11.2856 48.7506 13.6427 48.7506 16.5713V17.3927ZM44.322 13.8927C44.0363 12.8927 43.4648 12.107 42.6077 11.4999C41.7506 10.8927 40.7506 10.5713 39.6077 10.5713C38.3577 10.5713 37.2863 10.9284 36.3577 11.607C35.7863 12.0356 35.2148 12.7856 34.7148 13.8927H44.322Z" fill="#00497A"/>
<path d="M65.3923 7.28575H69.8209V24.9643H65.3923V23.1072C64.5352 23.9286 63.6423 24.5358 62.7852 24.8929C61.928 25.25 60.9637 25.4286 59.9637 25.4286C57.678 25.4286 55.7137 24.5358 54.0352 22.7858C52.3566 21.0358 51.5352 18.8215 51.5352 16.1786C51.5352 13.4643 52.3566 11.2143 53.9637 9.46432C55.5709 7.71432 57.5352 6.85718 59.8209 6.85718C60.8923 6.85718 61.8923 7.07146 62.8209 7.46432C63.7494 7.85718 64.6066 8.46432 65.3923 9.25004V7.28575ZM60.7137 10.9286C59.3566 10.9286 58.2137 11.4286 57.2852 12.3929C56.3566 13.3572 55.928 14.6072 55.928 16.1072C55.928 17.6429 56.3923 18.8929 57.3209 19.8572C58.2494 20.8572 59.3923 21.3215 60.7137 21.3215C62.1066 21.3215 63.2494 20.8215 64.178 19.8572C65.1066 18.8929 65.5709 17.6072 65.5709 16.0357C65.5709 14.5 65.1066 13.25 64.178 12.2857C63.2852 11.3929 62.1423 10.9286 60.7137 10.9286Z" fill="#00497A"/>
<path d="M73.8223 0.464355H78.2508V24.9286H73.8223V0.464355Z" fill="#00497A"/>
<path d="M99.9634 17.3927H85.7134C85.9277 18.6427 86.4635 19.6427 87.3563 20.3927C88.2492 21.1427 89.392 21.4999 90.7849 21.4999C92.4277 21.4999 93.8563 20.9284 95.0706 19.7499L98.8206 21.4999C97.892 22.8213 96.7849 23.7856 95.4634 24.4284C94.1777 25.0713 92.6063 25.3927 90.8206 25.3927C88.0349 25.3927 85.7849 24.5356 84.0349 22.7856C82.2849 21.0356 81.4277 18.857 81.4277 16.2141C81.4277 13.5356 82.2849 11.2856 84.0349 9.49986C85.7849 7.71415 87.9635 6.82129 90.5706 6.82129C93.3563 6.82129 95.6063 7.71415 97.3563 9.49986C99.1063 11.2856 99.9634 13.6427 99.9634 16.5713V17.3927ZM95.5349 13.8927C95.2492 12.8927 94.6777 12.107 93.8206 11.4999C92.9634 10.8927 91.9634 10.5713 90.8206 10.5713C89.5706 10.5713 88.4992 10.9284 87.5706 11.607C86.9992 12.0356 86.4277 12.7856 85.9277 13.8927H95.5349Z" fill="#00497A"/>
<path d="M126.465 5.50007L124.572 6.92864C123.536 5.5715 122.286 4.53578 120.822 3.85721C119.357 3.14293 117.75 2.8215 116.036 2.8215C114.143 2.8215 112.357 3.28578 110.75 4.17864C109.143 5.10721 107.857 6.3215 106.965 7.85721C106.072 9.39293 105.607 11.1429 105.607 13.0715C105.607 16.0001 106.607 18.4286 108.607 20.3572C110.607 22.3215 113.107 23.2858 116.179 23.2858C119.536 23.2858 122.322 21.9644 124.572 19.3572L126.465 20.7858C125.286 22.2858 123.786 23.4644 122 24.2858C120.215 25.1072 118.215 25.5358 116.036 25.5358C111.857 25.5358 108.572 24.1429 106.143 21.3572C104.107 19.0001 103.107 16.1786 103.107 12.8572C103.107 9.35721 104.322 6.42864 106.786 4.03578C109.25 1.64293 112.322 0.464355 116 0.464355C118.215 0.464355 120.25 0.892927 122.036 1.78578C123.822 2.67864 125.322 3.89293 126.465 5.50007Z" fill="#00497A"/>
<path d="M148.465 7.28575V24.9643H146.215V21.9286C145.251 23.0715 144.179 23.9643 143.001 24.5358C141.822 25.1072 140.537 25.4286 139.108 25.4286C136.608 25.4286 134.465 24.5357 132.715 22.7143C130.929 20.8929 130.072 18.7143 130.072 16.1072C130.072 13.5715 130.965 11.3929 132.751 9.57146C134.537 7.75004 136.679 6.85718 139.179 6.85718C140.644 6.85718 141.929 7.17861 143.108 7.78575C144.287 8.39289 145.322 9.32146 146.215 10.5715V7.28575H148.465ZM139.394 9.03575C138.144 9.03575 136.965 9.35718 135.894 9.96432C134.822 10.5715 133.965 11.4643 133.322 12.5715C132.679 13.6786 132.358 14.8929 132.358 16.1429C132.358 17.3929 132.679 18.5715 133.322 19.7143C133.965 20.8572 134.822 21.75 135.894 22.3572C136.965 23 138.108 23.3215 139.358 23.3215C140.608 23.3215 141.787 23 142.894 22.3929C144.001 21.7858 144.858 20.9286 145.465 19.8572C146.072 18.7857 146.358 17.5715 146.358 16.25C146.358 14.2143 145.679 12.5 144.322 11.1429C142.965 9.78575 141.358 9.03575 139.394 9.03575Z" fill="#00497A"/>
<path d="M162.463 9.21429L160.999 10.7143C159.785 9.53571 158.606 8.92857 157.428 8.92857C156.678 8.92857 156.071 9.17857 155.535 9.64286C154.999 10.1429 154.749 10.7143 154.749 11.3571C154.749 11.9286 154.963 12.4643 155.392 13C155.821 13.5357 156.749 14.1429 158.142 14.8571C159.821 15.75 160.999 16.5714 161.606 17.3929C162.213 18.2143 162.499 19.1429 162.499 20.1786C162.499 21.6429 161.999 22.8571 160.963 23.8571C159.928 24.8571 158.678 25.3571 157.142 25.3571C156.106 25.3571 155.142 25.1429 154.213 24.6786C153.285 24.2143 152.535 23.6071 151.928 22.8571L153.356 21.25C154.499 22.5714 155.749 23.2143 157.035 23.2143C157.963 23.2143 158.713 22.9286 159.356 22.3214C159.999 21.75 160.321 21.0357 160.321 20.25C160.321 19.6071 160.106 19.0357 159.678 18.5C159.249 18 158.285 17.3571 156.821 16.6071C155.213 15.7857 154.142 14.9643 153.571 14.1786C152.999 13.3929 152.713 12.4643 152.713 11.4286C152.713 10.0714 153.178 8.96429 154.071 8.07143C154.999 7.17857 156.142 6.75 157.535 6.75C159.178 6.82143 160.821 7.64286 162.463 9.21429Z" fill="#00497A"/>
<path d="M167.285 0C167.785 0 168.249 0.178571 168.606 0.535714C168.963 0.892857 169.142 1.35714 169.142 1.85714C169.142 2.35714 168.963 2.82143 168.606 3.17857C168.249 3.53571 167.785 3.71429 167.285 3.71429C166.785 3.71429 166.356 3.53571 165.963 3.17857C165.606 2.82143 165.428 2.35714 165.428 1.85714C165.428 1.32143 165.606 0.892857 165.963 0.535714C166.321 0.214286 166.785 0 167.285 0ZM166.142 7.28571H168.428V24.9643H166.142V7.28571Z" fill="#00497A"/>
<path d="M173.143 7.28575H175.428V10.4643C176.321 9.25004 177.357 8.35718 178.464 7.75003C179.571 7.14289 180.785 6.85718 182.071 6.85718C183.393 6.85718 184.571 7.17861 185.571 7.85718C186.607 8.53575 187.357 9.42861 187.821 10.5715C188.321 11.7143 188.535 13.4643 188.535 15.8929V25H186.25V16.5358C186.25 14.5 186.178 13.1429 186 12.4643C185.75 11.2857 185.214 10.4286 184.5 9.82146C183.785 9.21432 182.785 8.92861 181.571 8.92861C180.214 8.92861 178.964 9.39289 177.893 10.2858C176.821 11.1786 176.071 12.3215 175.75 13.6786C175.535 14.5715 175.428 16.1429 175.428 18.5V24.9643H173.143V7.28575Z" fill="#00497A"/>
<path d="M201.785 6.82129C204.499 6.82129 206.749 7.82129 208.535 9.78557C210.178 11.5713 210.964 13.7141 210.964 16.1784C210.964 18.6427 210.107 20.7856 208.392 22.6427C206.678 24.4999 204.464 25.4284 201.749 25.4284C199.035 25.4284 196.821 24.4999 195.107 22.6427C193.392 20.7856 192.535 18.6427 192.535 16.1784C192.535 13.7499 193.357 11.607 194.964 9.82129C196.785 7.82129 199.071 6.82129 201.785 6.82129ZM201.785 9.07129C199.892 9.07129 198.285 9.78558 196.928 11.1784C195.571 12.5713 194.892 14.2499 194.892 16.2499C194.892 17.5356 195.214 18.7141 195.821 19.8213C196.428 20.9284 197.285 21.7856 198.321 22.3927C199.357 22.9999 200.535 23.2856 201.785 23.2856C203.035 23.2856 204.214 22.9999 205.249 22.3927C206.285 21.7856 207.142 20.9284 207.749 19.8213C208.357 18.7141 208.678 17.5356 208.678 16.2499C208.678 14.2856 207.999 12.5713 206.642 11.1784C205.285 9.74986 203.642 9.07129 201.785 9.07129Z" fill="#00497A"/>
<path d="M213.071 12.2857L212.321 11.8572C212.571 11.3572 212.75 10.9643 212.821 10.6786C212.893 10.3929 212.964 10.0358 213 9.57146H212.143V6.85718H213.928V8.53575C213.928 9.39289 213.857 10.0357 213.75 10.5357C213.607 11.0715 213.393 11.6072 213.071 12.2857Z" fill="#00497A"/>
<path d="M225.393 9.21429L223.929 10.7143C222.715 9.53571 221.536 8.92857 220.357 8.92857C219.607 8.92857 219 9.17857 218.465 9.64286C217.929 10.1429 217.679 10.7143 217.679 11.3571C217.679 11.9286 217.893 12.4643 218.322 13C218.75 13.5357 219.679 14.1429 221.072 14.8571C222.75 15.75 223.929 16.5714 224.536 17.3929C225.143 18.2143 225.429 19.1429 225.429 20.1786C225.429 21.6429 224.929 22.8571 223.893 23.8571C222.857 24.8571 221.607 25.3571 220.072 25.3571C219.036 25.3571 218.072 25.1429 217.143 24.6786C216.215 24.2143 215.465 23.6071 214.857 22.8571L216.286 21.25C217.429 22.5714 218.679 23.2143 219.965 23.2143C220.893 23.2143 221.643 22.9286 222.286 22.3214C222.929 21.75 223.25 21.0357 223.25 20.25C223.25 19.6071 223.036 19.0357 222.607 18.5C222.179 18 221.215 17.3571 219.75 16.6071C218.143 15.7857 217.072 14.9643 216.5 14.1786C215.929 13.3929 215.643 12.4643 215.643 11.4286C215.643 10.0714 216.107 8.96429 217 8.07143C217.929 7.17857 219.072 6.75 220.465 6.75C222.107 6.82143 223.75 7.64286 225.393 9.21429Z" fill="#00497A"/>
</svg>
