<svg width="35" height="39" viewBox="0 0 35 39" fill="none" xmlns="http://www.w3.org/2000/svg">
<path d="M33.8294 18.9194C33.7156 18.8625 33.545 18.8057 33.3744 18.7488C33.3175 18.7488 33.3175 18.7488 33.2606 18.7488H33.2037H33.1469C33.09 18.7488 33.0331 18.7488 32.9762 18.7488H22.6815C21.9422 18.7488 21.3734 19.3175 21.3734 20.0569C21.3734 20.7963 21.9422 21.3651 22.6815 21.3651H26.6629C26.7767 21.3651 26.8904 21.4789 26.8904 21.5926C26.8904 21.6495 26.8336 21.7064 26.7767 21.7632C24.5585 22.9576 21.7715 23.6402 18.6433 23.6402C17.9039 23.6402 17.1645 23.5833 16.4251 23.5264V26.5409C17.0508 26.5978 17.6764 26.5978 18.302 26.5978C22.6247 26.5978 26.5492 25.574 29.4499 23.8108C29.5067 23.8108 29.5068 23.7539 29.5636 23.7539C29.7343 23.7539 29.848 23.8677 29.848 24.0383V24.0952L29.2224 25.7446C28.8811 26.5978 29.3361 27.5647 30.2461 27.9059C30.4168 27.9628 30.6443 28.0197 30.8149 28.0197C31.4974 28.0197 32.1231 27.6215 32.4075 26.939L34.6257 20.9101C34.9669 20.1707 34.6257 19.3175 33.8294 18.9194Z" fill="#347EA0"/>
<path d="M18.7 7.60105C21.8282 7.60105 24.6721 8.34044 26.8902 9.53485C26.8902 9.53485 28.3122 10.5586 28.9378 9.59173C29.6772 8.4542 28.1984 7.77167 28.1984 7.77167C25.4683 6.4635 22.0557 5.72412 18.4156 5.72412C17.79 5.72412 17.1643 5.72411 16.5387 5.78098V7.71481C17.2212 7.60105 17.9606 7.60105 18.7 7.60105Z" fill="#347EA0"/>
<path d="M2.83195 0.662109C1.58066 0.662109 0.5 1.68589 0.5 2.99406V28.4179C0.5 29.7261 1.52378 30.7499 2.83195 30.7499H16.4824V26.541C8.29211 25.9722 1.92192 21.5359 1.92192 16.1326C1.92192 10.7293 8.29211 6.34979 16.4824 5.72415V0.662109H2.83195Z" fill="#347EA0"/>
<path d="M6.0166 15.6207C6.0166 19.6021 10.5099 22.9009 16.4819 23.5266V7.71484C10.5667 8.34049 6.0166 11.6393 6.0166 15.6207Z" fill="#347EA0"/>
<path d="M5.84641 36.0394C5.78953 37.6888 4.65201 38.7695 3.17321 38.7695C2.37694 38.7695 1.69442 38.4851 1.18253 37.8595C0.727514 37.3476 0.5 36.7219 0.5 35.9825C0.5 35.2431 0.78438 34.5606 1.29627 34.0487C1.80816 33.5368 2.4338 33.3093 3.23007 33.3093C4.31073 33.3093 5.16389 33.8212 5.56202 34.7312H4.59513C4.25387 34.2762 3.74198 34.0487 3.17321 34.0487C2.66132 34.0487 2.2063 34.2193 1.86504 34.6175C1.4669 35.0156 1.29627 35.5275 1.29627 36.0394C1.29627 36.6082 1.4669 37.1201 1.80816 37.4613C2.14942 37.8595 2.66132 38.0301 3.17321 38.0301C3.96949 38.0301 4.59512 37.6319 4.99326 36.7788H2.60444V36.0394H5.84641Z" fill="#347EA0"/>
<path d="M6.70087 38.6558H5.9046L7.95217 33.3662H8.69156L10.7391 38.6558H9.88597L9.3172 37.1201H7.26964L6.70087 38.6558ZM8.29343 34.39L7.55402 36.3807H9.03282L8.29343 34.39Z" fill="#347EA0"/>
<path d="M11.0237 38.6558V33.3662H12.1612L13.6969 37.4613L15.2326 33.3662H16.3701V38.6558H15.6307L15.6876 34.1056L13.9813 38.6558H13.4125L11.7062 34.1056L11.7631 38.6558H11.0237Z" fill="#347EA0"/>
<path d="M19.7246 38.7695C18.9283 38.7695 18.3027 38.4851 17.7908 37.9163C17.2789 37.4044 17.0514 36.7219 17.0514 35.9825C17.0514 35.2431 17.3358 34.5606 17.8477 34.0487C18.3596 33.5368 19.0421 33.2524 19.7815 33.2524C21.0328 33.2524 22.0565 34.0487 22.3978 35.3569H20.9759C20.6915 34.845 20.2934 34.5606 19.7246 34.5606C18.9283 34.5606 18.3027 35.1862 18.3027 35.9256C18.3027 36.7788 18.9283 37.4044 19.6677 37.4044C20.1796 37.4044 20.5777 37.1201 20.8621 36.665H22.284C21.9997 37.9732 20.9759 38.7695 19.7246 38.7695Z" fill="#347EA0"/>
<path d="M23.6476 38.6558H22.2256L24.2732 33.3662H25.3539L27.4014 38.6558H25.9795L25.6951 37.9163H23.9319L23.6476 38.6558ZM24.7851 35.1294L24.2732 36.8357H25.297L24.7851 35.1294Z" fill="#347EA0"/>
<path d="M27.4031 38.6558V33.3662H29.1663C29.735 33.3662 30.1332 33.4231 30.4744 33.6506C30.9294 33.9919 31.2138 34.4469 31.2138 35.1294C31.2138 35.9825 30.7588 36.6082 30.0194 36.8357L31.3276 38.6558H29.735L28.7113 36.9495V38.6558H27.4031ZM28.9956 35.8119C29.6213 35.8119 29.9625 35.6413 29.9625 35.1863C29.9625 34.7313 29.6781 34.5606 29.1094 34.5606H28.7681V35.8119H28.9956Z" fill="#347EA0"/>
<path d="M31.8959 38.6558V33.3662H34.7397V34.5037H33.1472V35.3569H34.7397V36.5513H33.1472V37.4613H34.7397V38.5989H31.8959V38.6558Z" fill="#347EA0"/>
</svg>
