<svg width="15" height="15" viewBox="0 0 15 15" fill="none" xmlns="http://www.w3.org/2000/svg">
<path d="M14.2327 6.78354C14.5161 6.50735 14.6161 6.10199 14.4939 5.72518C14.3713 5.34836 14.0522 5.07937 13.6601 5.02229L10.1739 4.51574C10.0254 4.49411 9.89713 4.40099 9.83082 4.26635L8.27224 1.10768C8.09724 0.75278 7.74205 0.532227 7.34621 0.532227C6.95065 0.532227 6.59546 0.75278 6.42046 1.10768L4.86159 4.26664C4.79528 4.40128 4.6667 4.4944 4.51822 4.51602L1.03204 5.02258C0.640233 5.07937 0.320791 5.34865 0.198262 5.72546C0.0760203 6.10228 0.176062 6.50764 0.459466 6.78383L2.98185 9.2425C3.08938 9.34744 3.13868 9.49851 3.11331 9.64612L2.51825 13.1179C2.46549 13.4235 2.54564 13.7207 2.74342 13.9551C3.05075 14.3204 3.58729 14.4317 4.01628 14.2062L7.13401 12.5669C7.26433 12.4986 7.42837 12.4992 7.5584 12.5669L10.6764 14.2062C10.8281 14.2861 10.9898 14.3265 11.1567 14.3265C11.4615 14.3265 11.7504 14.191 11.949 13.9551C12.1471 13.7207 12.2269 13.4229 12.1742 13.1179L11.5788 9.64612C11.5534 9.49822 11.6027 9.34744 11.7103 9.2425L14.2327 6.78354Z" fill="#FFB800"/>
</svg>
